Coordinates
version=1
nRows=23
nColumns=30
inDegrees=yes

Units are S.I. units (second, meters, Newtons, ...)
Angles are in degrees.

endheader
time	floatyaw	floatroll	floatpitch	floatx	floaty	floatz	pro_sup_l	deviation_l	flexion_l	cmc_flexion_l	cmc_abduction_l	mp_flexion_l	ip_flexion_l	2mcp_flexion_l	2mcp_abduction_l	2pm_flexion_l	2md_flexion_l	3mcp_flexion_l	3mcp_abduction_l	3pm_flexion_l	3md_flexion_l	4mcp_flexion_l	4mcp_abduction_l	4pm_flexion_l	4md_flexion_l	5mcp_flexion_l	5mcp_abduction_l	5pm_flexion_l	5md_flexion_l
-1.495000	-1.782892	-2.032873	94.941017	-0.007910	-0.272022	0.012011	89.902481	1.044930	-1.231293	26.077453	2.512396	-18.310241	-32.889512	20.135477	5.656026	31.822519	20.227634	9.281104	4.223333	34.414447	21.951807	-1.837034	-3.788637	50.985180	33.797453	-21.220812	-7.429514	60.369591	50.291704
-1.485000	-1.782892	-2.032873	94.941017	-0.007892	-0.272026	0.011977	89.891085	1.051486	-1.227536	26.043262	2.529969	-18.273442	-32.867791	20.109890	5.641958	31.861679	20.262282	9.247641	4.227424	34.451771	21.995362	-1.883428	-3.800288	51.040120	33.820799	-21.249801	-7.425019	60.401965	50.314989
-1.475000	-1.782892	-2.032873	94.941017	-0.007876	-0.272035	0.011950	89.881700	1.056647	-1.225781	26.023607	2.546848	-18.247347	-32.856993	20.081168	5.633274	31.903532	20.307031	9.214902	4.229479	34.482638	22.043336	-1.923115	-3.808647	51.089511	33.834921	-21.292764	-7.418613	60.464356	50.297592
-1.465000	-1.782892	-2.032873	94.941017	-0.007866	-0.272045	0.011936	89.877454	1.058402	-1.226271	26.024778	2.560700	-18.238989	-32.861582	20.051888	5.632022	31.944593	20.348937	9.188890	4.230054	34.500675	22.081141	-1.950484	-3.811603	51.121489	33.838256	-21.335711	-7.409405	60.532692	50.247559
-1.455000	-1.782892	-2.032873	94.941017	-0.007863	-0.272055	0.011937	89.878158	1.056018	-1.226863	26.042436	2.568266	-18.246354	-32.877400	20.022689	5.637343	31.983800	20.375534	9.167503	4.229465	34.508046	22.100401	-1.971083	-3.809204	51.137018	33.832452	-21.376463	-7.398530	60.591452	50.184477
-1.445000	-1.782892	-2.032873	94.941017	-0.007868	-0.272063	0.011952	89.880223	1.050046	-1.224269	26.063552	2.566141	-18.259730	-32.893286	19.993903	5.645804	32.018726	20.380341	9.143720	4.227628	34.510552	22.101776	-1.996566	-3.803293	51.145924	33.821274	-21.423125	-7.388753	60.636860	50.130101
-1.435000	-1.782892	-2.032873	94.941017	-0.007880	-0.272071	0.011973	89.878318	1.041604	-1.216114	26.072832	2.553256	-18.267213	-32.896495	19.968228	5.653063	32.042417	20.365291	9.112256	4.224291	34.511070	22.092685	-2.034895	-3.796222	51.157058	33.808484	-21.484773	-7.382801	60.671302	50.098708
-1.425000	-1.782892	-2.032873	94.941017	-0.007896	-0.272078	0.011998	89.868590	1.031757	-1.202578	26.060859	2.532558	-18.261079	-32.879853	19.951639	5.656036	32.044648	20.338948	9.074787	4.219368	34.506714	22.081995	-2.082421	-3.789504	51.170100	33.796087	-21.560818	-7.381752	60.695128	50.091811
-1.415000	-1.782892	-2.032873	94.941017	-0.007916	-0.272085	0.012023	89.851616	1.021511	-1.186427	26.029493	2.509911	-18.241156	-32.846513	19.950849	5.654305	32.017894	20.311773	9.039643	4.213091	34.492083	22.075401	-2.124128	-3.783292	51.175428	33.784050	-21.637135	-7.384724	60.702814	50.099709
-1.405000	-1.782892	-2.032873	94.941017	-0.007937	-0.272089	0.012049	89.832697	1.012075	-1.171533	25.991411	2.491069	-18.213786	-32.809239	19.968836	5.649938	31.963957	20.291317	9.016221	4.205998	34.465827	22.074177	-2.142475	-3.776952	51.162033	33.771541	-21.692368	-7.390035	60.686199	50.108560
-1.395000	-1.782892	-2.032873	94.941017	-0.007956	-0.272087	0.012073	89.818802	1.004764	-1.161124	25.964298	2.479519	-18.188124	-32.784755	20.001999	5.645987	31.895932	20.280181	9.008588	4.198995	34.434855	22.077334	-2.128502	-3.770199	51.127046	33.758683	-21.710214	-7.396896	60.641848	50.108456
-1.385000	-1.782892	-2.032873	94.941017	-0.007968	-0.272079	0.012093	89.814242	1.000440	-1.156853	25.963041	2.476499	-18.172447	-32.786544	20.041060	5.644676	31.833479	20.277532	9.012953	4.193438	34.412354	22.084867	-2.087424	-3.763837	51.079613	33.747554	-21.689187	-7.406251	60.576797	50.097583
-1.375000	-1.782892	-2.032873	94.941017	-0.007971	-0.272068	0.012108	89.818224	0.999055	-1.158673	25.993446	2.481856	-18.171690	-32.819366	20.074769	5.646329	31.794127	20.282252	9.020151	4.190945	34.410769	22.099307	-2.035663	-3.759502	51.036748	33.741666	-21.643592	-7.419897	60.508241	50.080637
-1.365000	-1.782892	-2.032873	94.941017	-0.007966	-0.272062	0.012116	89.825789	0.999796	-1.164983	26.049720	2.494051	-18.186104	-32.877238	20.094059	5.649466	31.785710	20.294563	9.020778	4.192719	34.434659	22.124198	-1.992341	-3.758649	51.014624	33.744156	-21.595706	-7.438298	60.456509	50.064110
-1.355000	-1.782892	-2.032873	94.941017	-0.007953	-0.272065	0.012116	89.831010	1.001707	-1.172983	26.116601	2.509715	-18.211143	-32.945471	20.095163	5.651884	31.803778	20.314599	9.009823	4.198727	34.478117	22.160455	-1.970696	-3.761590	51.020972	33.755742	-21.564368	-7.458713	60.434936	50.052695
-1.345000	-1.782892	-2.032873	94.941017	-0.007938	-0.272076	0.012109	89.830143	1.004189	-1.179632	26.175600	2.524420	-18.239082	-33.006429	20.081093	5.652050	31.834693	20.339490	8.988990	4.207421	34.527894	22.203235	-1.973297	-3.767283	51.052284	33.773692	-21.556386	-7.475271	60.442633	50.048772
-1.335000	-1.782892	-2.032873	94.941017	-0.007925	-0.272092	0.012097	89.823140	1.007014	-1.183185	26.212771	2.534940	-18.262151	-33.046957	20.060989	5.649987	31.862202	20.362083	8.966360	4.216383	34.569543	22.241807	-1.992147	-3.773865	51.096049	33.792486	-21.564635	-7.481219	60.464546	50.053660
-1.325000	-1.782892	-2.032873	94.941017	-0.007916	-0.272106	0.012083	89.813164	1.009993	-1.184405	26.224069	2.541211	-18.275693	-33.063812	20.047011	5.647007	31.873990	20.373031	8.953764	4.223501	34.592535	22.262954	-2.012800	-3.779487	51.135897	33.805901	-21.572870	-7.471935	60.478495	50.068556
-1.315000	-1.782892	-2.032873	94.941017	-0.007913	-0.272115	0.012070	89.804639	1.012670	-1.186297	26.215347	2.546121	-18.279640	-33.063780	20.049481	5.644449	31.865346	20.365175	8.962594	4.227835	34.591930	22.256248	-2.020631	-3.782939	51.157148	33.809459	-21.564219	-7.446824	60.464856	50.094390
-1.305000	-1.782892	-2.032873	94.941017	-0.007917	-0.272119	0.012061	89.800949	1.014368	-1.192118	26.197230	2.552936	-18.277609	-33.058040	20.072205	5.642369	31.839055	20.337477	8.999263	4.229586	34.567165	22.218511	-2.006890	-3.783891	51.151028	33.802063	-21.529118	-7.409219	60.414111	50.131061
-1.295000	-1.782892	-2.032873	94.941017	-0.007929	-0.272120	0.012061	89.803004	1.014568	-1.202781	26.178433	2.562136	-18.274424	-33.054152	20.110254	5.639195	31.802584	20.296070	9.062045	4.229343	34.520137	22.155288	-1.972229	-3.782776	51.116680	33.786160	-21.469357	-7.364755	60.329563	50.176771
-1.285000	-1.782892	-2.032873	94.941017	-0.007947	-0.272121	0.012071	89.809238	1.013280	-1.215549	26.161868	2.570162	-18.273843	-33.051080	20.151688	5.632663	31.764504	20.251844	9.140979	4.227314	34.454281	22.078725	-1.926320	-3.780489	51.060729	33.766568	-21.397122	-7.319517	60.224951	50.227938
-1.275000	-1.782892	-2.032873	94.941017	-0.007972	-0.272119	0.012088	89.816572	1.010977	-1.225190	26.145683	2.571580	-18.277841	-33.040902	20.182942	5.621388	31.731587	20.215918	9.221463	4.223131	34.374666	22.003042	-1.883669	-3.778013	50.994615	33.748651	-21.330090	-7.278939	60.118461	50.279929
